<?xml version="1.0" encoding="UTF-8"?>
<svg xmlns="http://www.w3.org/2000/svg" xmlns:xlink="http://www.w3.org/1999/xlink" viewBox="0 0 1104.4 630.61">
  <defs>
    <style>
      .cls-1 {
        fill: #991d1f;
      }

      .cls-2 {
        fill: #ffffff;
      }

      .cls-3 {
        fill: url(#linear-gradient);
      }

      .cls-4 {
        isolation: isolate;
      }

      .cls-5 {
        fill: #ed1c24;
      }

      .cls-6 {
        mix-blend-mode: darken;
      }
    </style>
    <linearGradient id="linear-gradient" x1="244.23" y1="708.39" x2="282.03" y2="30.13" gradientUnits="userSpaceOnUse">
      <stop offset="0" stop-color="#fff"/>
      <stop offset=".22" stop-color="#f8991d"/>
      <stop offset=".67" stop-color="#f37021"/>
      <stop offset="1" stop-color="#b72025"/>
    </linearGradient>
  </defs>
  <g class="cls-4">
    <g id="Layer_1" data-name="Layer 1">
      <g>
        <g class="cls-6">
          <path class="cls-1" d="M277.71,422.98c-10.8,2.3-5.56,1.49-15.4,3.82-58.95,13.96-143.26-2.59-171.25-53.63-18.99-34.63-19.68-82.7-6.65-119.27-125.58,130.91-32.14,350.02,149.29,350.02,45.46,0,87.49-14.68,121.62-39.53,80.51-58.64,15.13-157.22-77.61-141.41Z"/>
          <path class="cls-3" d="M418.78,330.63c-10.98-19.19-26.84-32.59-44.92-46.67-17.17-13.37-38.56-29.63-47.85-49.92-2.45-5.33-3.75-11.02-3.98-16.87-.16-4.19-.83-14.39,1.6-17.93-7.62,11.08-20.06,24.64-25.41,36.86-38.29,87.34,48.55,103.43,27.72,101.12-130.86-14.54-13.37-147.22-7.42-214.16,5.13-57.64-40.09-103.92-60.65-103.92,74.22,124.05-99.17,163.64-94.98,236.52-7.41-62.52,40.96-102.45-27.95-170.31,12.9,12.69,8.67,59.78,6.01,75.57-4.93,29.16-18.5,55.51-30.51,82.2-24.24,53.86-27,117.44,31.81,150.48,31.75,17.83,80.73,19.53,115.35,9.19,77.66-17.5,146.36,29.72,154.22,92.2,12.28-24.55,19.62-51.15,21.04-78.54,1.23-23.81,1.31-49.86-7.6-72.35-1.9-4.81-4.07-9.27-6.47-13.47Z"/>
          <path class="cls-5" d="M323.64,199.21s0,.01-.01.02c0,0,0-.01.01-.02h0Z"/>
        </g>
        <path class="cls-2" d="M510.19,331.41c-8.68-6.3-13.02-14.93-13.02-25.89h29.04c.18,4.66,2.44,8.45,6.78,11.37,4.34,2.92,10.66,4.38,18.97,4.38,14.52,0,21.78-3.24,21.78-9.73v-1.37c0-2.1-1.07-3.77-3.22-5-2.15-1.23-5.37-2.21-9.66-2.95l-26.44-4.38c-8.59-1.46-15.39-3.24-20.41-5.34-5.02-2.1-8.72-4.91-11.1-8.43-2.38-3.52-3.56-8.1-3.56-13.77,0-9.68,3.9-17.31,11.71-22.88,7.81-5.57,19.93-8.36,36.37-8.36,11.69,0,21.35,1.49,28.98,4.45,7.62,2.97,13.24,6.9,16.85,11.78,3.61,4.89,5.46,10.3,5.55,16.23h-29.18c-.37-3.65-2.56-6.71-6.58-9.18-4.02-2.47-9.73-3.7-17.13-3.7-5.75,0-10.27.75-13.56,2.26-3.29,1.51-4.93,3.59-4.93,6.23v1.37c0,2.01,1.07,3.54,3.22,4.59,2.14,1.05,5.55,1.94,10.21,2.67l24.66,4.11c12.69,2.1,21.92,5.32,27.67,9.66,5.75,4.34,8.63,10.71,8.63,19.11,0,21.46-16.99,32.2-50.96,32.2-18.45,0-32.01-3.15-40.69-9.45ZM695.69,245.65c5.3,2.83,9.36,6.71,12.19,11.65,2.83,4.93,4.25,10.46,4.25,16.58s-1.42,11.65-4.25,16.58c-2.83,4.93-6.9,8.81-12.19,11.65-5.3,2.83-11.51,4.25-18.63,4.25h-40.55v32.33h-27.95v-97.27h68.5c7.12,0,13.33,1.42,18.63,4.25ZM684.04,273.05c0-3.47-1.23-6.14-3.7-8.01-2.47-1.87-5.89-2.81-10.28-2.81h-33.57v23.29h33.57c4.29,0,7.69-.94,10.21-2.81,2.51-1.87,3.77-4.54,3.77-8.01v-1.64ZM746.93,262.23v17.26h57.95v20.82h-57.95v17.54h61.51v20.82h-89.46v-97.27h89.46v20.82h-61.51ZM895.44,322.1h-49.87l-6.58,16.58h-27.81l38.77-97.27h41.92l38.91,97.27h-28.91l-6.44-16.58ZM887.35,301.27l-16.85-42.88-16.85,42.88h33.7ZM983.8,297.02l-21.37,19.87v21.78h-27.95v-97.27h27.95v45.76l47.81-45.76h33.57l-40.28,37.4,40.96,59.87h-32.2l-28.5-41.65ZM656.78,369.94l-27.81,97.27h-33.84l-19.18-64.53-19.18,64.53h-33.02l-27.67-97.27h28.36l17.95,66.04,20-66.04h28.22l20.14,66.72,18.22-66.72h27.81ZM662.4,369.94h27.95v97.27h-27.95v-97.27ZM734.05,390.77h-35.89v-20.82h99.88v20.82h-36.03v76.45h-27.95v-76.45ZM911.19,369.94v97.27h-27.95v-38.36h-50.14v38.36h-27.95v-97.27h27.95v38.09h50.14v-38.09h27.95ZM579.1,579.18h-49.87l-6.58,16.58h-27.81l38.77-97.27h41.92l38.91,97.27h-28.91l-6.44-16.58ZM571.01,558.36l-16.85-42.88-16.85,42.88h33.7ZM750.9,498.49v97.27h-27.4v-71.93l-25.62,71.93h-25.48l-26.85-73.3v73.3h-27.4v-97.27h43.16l24.11,66.86,23.43-66.86h42.06ZM857.9,553.01c3.47,3.84,5.21,8.81,5.21,14.93,0,8.59-2.92,15.37-8.77,20.34-5.85,4.98-13.84,7.47-23.97,7.47h-71.24v-97.27h66.99c9.86,0,17.85,2.24,23.97,6.71,6.12,4.48,9.18,10.87,9.18,19.18,0,5.39-1.42,9.8-4.25,13.22-2.83,3.42-6.44,5.87-10.82,7.33,5.66,1.55,10.23,4.25,13.7,8.08ZM787.07,518.76v17.67h33.02c3.38,0,6.07-.68,8.08-2.05,2.01-1.37,3.01-3.42,3.01-6.17v-1.37c0-2.65-.98-4.66-2.95-6.03-1.96-1.37-4.59-2.05-7.88-2.05h-33.29ZM834.74,565.34c0-3.01-1.08-5.3-3.22-6.85-2.15-1.55-4.96-2.33-8.43-2.33h-36.03v19.32h36.03c3.56,0,6.39-.75,8.49-2.26,2.1-1.51,3.15-3.77,3.15-6.78v-1.1ZM897.22,519.31v17.26h57.95v20.82h-57.95v17.54h61.51v20.82h-89.46v-97.27h89.46v20.82h-61.51ZM1018.74,563.43h-24.8v32.33h-27.95v-97.27h67.13c7.12,0,13.33,1.42,18.63,4.25,5.3,2.83,9.36,6.71,12.19,11.65,2.83,4.93,4.25,10.46,4.25,16.58,0,7.12-1.87,13.24-5.62,18.36-3.75,5.12-9.04,8.72-15.89,10.82l25.76,35.62h-31.65l-22.06-32.33ZM993.94,542.6h32.2c4.29,0,7.69-.93,10.21-2.81,2.51-1.87,3.77-4.54,3.77-8.01v-1.64c0-3.47-1.23-6.14-3.7-8.01-2.47-1.87-5.89-2.81-10.28-2.81h-32.2v23.29Z"/>
      </g>
    </g>
  </g>
</svg>